# xmcd
#
# Track frame offsets: 
#        2408
#        20888
#        41518
#        59945
#        79533
#        100038
#        119573
#        137568
#        156998
#        178300
#
# Disc length: 2602 seconds
#
# Revision: 0
# Processed by: cddbd v1.5.2PL0 Copyright (c) Steve Scherf et al.
# Submitted via: ExactAudioCopy v1.0b1
#
DISCID=910a0a0a
DTITLE=葉歡 - 因為愛你
DYEAR=2011
DGENRE=Blues
TTITLE0=因為愛你
TTITLE1=全新的自己
TTITLE2=褪色的愛情
TTITLE3=有誰能明了
TTITLE4=夜色
TTITLE5=我想我應該走了
TTITLE6=讓那音樂不要停
TTITLE7=生日的清晨
TTITLE8=藍色的雨
TTITLE9=是你
EXTD=
EXTT0=
EXTT1=
EXTT2=
EXTT3=
EXTT4=
EXTT5=
EXTT6=
EXTT7=
EXTT8=
EXTT9=
PLAYORDER=
